{
	"asset":{
		"version":"2.0",
		"generator":"Created using the official Cinema 4D glTF Exporter 1.000x284978"
	},
	"scenes":[{
		"nodes":[0,
		1,
		2,
		3,
		4]
	}],
	"nodes":[{
		"translation":[4.051049709320068,
		3.549420118331909,
		-8.18005084991455],
		"name":"areaLight02",
		"rotation":[0.6757121682167053,
		-0.20835809409618379,
		-0.20835809409618379,
		0.6757121682167053],
		"scale":[1.0,
		1.0,
		1.0],
		"mesh":0
	},
	{
		"translation":[-2.316262722015381,
		2.2450482845306398,
		-6.4774274826049809],
		"name":"areaLight01",
		"rotation":[-0.7071067690849304,
		0.0,
		0.0,
		-0.7071067690849304],
		"scale":[1.0,
		1.0,
		1.0],
		"mesh":1
	},
	{
		"translation":[-2.0598106384277345,
		2.127983331680298,
		-6.072300910949707],
		"name":"areaLight00",
		"rotation":[0.7071067690849304,
		0.0,
		0.0,
		-0.7071067690849304],
		"scale":[1.0,
		1.0,
		1.0],
		"mesh":2
	},
	{
		"name":"domeLight",
		"mesh":3
	},
	{
		"translation":[-5.858163356781006,
		1.3085706233978272,
		-11.857161521911621],
		"name":"infinityLight",
		"rotation":[0.8714874982833862,
		-0.23714032769203187,
		-0.1828446388244629,
		-0.3883836269378662],
		"scale":[1.0,
		1.0,
		1.0],
		"mesh":4
	}],
	"meshes":[{
		"name":"areaLight02",
		"primitives":[{
			"attributes":{
				"POSITION":1,
				"NORMAL":2,
				"TEXCOORD_0":3
			},
			"indices":0
		}]
	},
	{
		"name":"areaLight01",
		"primitives":[{
			"attributes":{
				"POSITION":5,
				"NORMAL":6,
				"TEXCOORD_0":7
			},
			"indices":4
		}]
	},
	{
		"name":"areaLight00",
		"primitives":[{
			"attributes":{
				"POSITION":9,
				"NORMAL":10,
				"TEXCOORD_0":11
			},
			"indices":8
		}]
	},
	{
		"name":"domeLight",
		"primitives":[{
			"attributes":{
				"POSITION":13,
				"NORMAL":14,
				"TEXCOORD_0":15
			},
			"indices":12
		}]
	},
	{
		"name":"infinityLight",
		"primitives":[{
			"attributes":{
				"POSITION":17,
				"NORMAL":18,
				"TEXCOORD_0":19
			},
			"indices":16
		}]
	}],
	"accessors":[{
		"bufferView":0,
		"type":"SCALAR",
		"componentType":5123,
		"min":[0],
		"count":36,
		"byteOffset":0,
		"max":[23]
	},
	{
		"bufferView":1,
		"type":"VEC3",
		"componentType":5126,
		"min":[-0.0005000000237487257,
		-0.0005000000237487257,
		-0.0005000000237487257],
		"count":24,
		"byteOffset":0,
		"max":[0.0005000000237487257,
		0.0005000000237487257,
		0.0005000000237487257]
	},
	{
		"bufferView":1,
		"type":"VEC3",
		"componentType":5126,
		"min":[-1.0,
		-1.0,
		-1.0],
		"count":24,
		"byteOffset":12,
		"max":[1.0,
		1.0,
		1.0]
	},
	{
		"bufferView":1,
		"type":"VEC2",
		"componentType":5126,
		"min":[0.0,
		0.0],
		"count":24,
		"byteOffset":24,
		"max":[1.0,
		1.0]
	},
	{
		"bufferView":2,
		"type":"SCALAR",
		"componentType":5123,
		"min":[0],
		"count":36,
		"byteOffset":0,
		"max":[23]
	},
	{
		"bufferView":3,
		"type":"VEC3",
		"componentType":5126,
		"min":[-0.0005000000237487257,
		-0.0005000000237487257,
		-0.0005000000237487257],
		"count":24,
		"byteOffset":0,
		"max":[0.0005000000237487257,
		0.0005000000237487257,
		0.0005000000237487257]
	},
	{
		"bufferView":3,
		"type":"VEC3",
		"componentType":5126,
		"min":[-1.0,
		-1.0,
		-1.0],
		"count":24,
		"byteOffset":12,
		"max":[1.0,
		1.0,
		1.0]
	},
	{
		"bufferView":3,
		"type":"VEC2",
		"componentType":5126,
		"min":[0.0,
		0.0],
		"count":24,
		"byteOffset":24,
		"max":[1.0,
		1.0]
	},
	{
		"bufferView":4,
		"type":"SCALAR",
		"componentType":5123,
		"min":[0],
		"count":36,
		"byteOffset":0,
		"max":[23]
	},
	{
		"bufferView":5,
		"type":"VEC3",
		"componentType":5126,
		"min":[-0.0005000000237487257,
		-0.0005000000237487257,
		-0.0005000000237487257],
		"count":24,
		"byteOffset":0,
		"max":[0.0005000000237487257,
		0.0005000000237487257,
		0.0005000000237487257]
	},
	{
		"bufferView":5,
		"type":"VEC3",
		"componentType":5126,
		"min":[-1.0,
		-1.0,
		-1.0],
		"count":24,
		"byteOffset":12,
		"max":[1.0,
		1.0,
		1.0]
	},
	{
		"bufferView":5,
		"type":"VEC2",
		"componentType":5126,
		"min":[0.0,
		0.0],
		"count":24,
		"byteOffset":24,
		"max":[1.0,
		1.0]
	},
	{
		"bufferView":6,
		"type":"SCALAR",
		"componentType":5123,
		"min":[0],
		"count":36,
		"byteOffset":0,
		"max":[23]
	},
	{
		"bufferView":7,
		"type":"VEC3",
		"componentType":5126,
		"min":[-0.0005000000237487257,
		-0.0005000000237487257,
		-0.0005000000237487257],
		"count":24,
		"byteOffset":0,
		"max":[0.0005000000237487257,
		0.0005000000237487257,
		0.0005000000237487257]
	},
	{
		"bufferView":7,
		"type":"VEC3",
		"componentType":5126,
		"min":[-1.0,
		-1.0,
		-1.0],
		"count":24,
		"byteOffset":12,
		"max":[1.0,
		1.0,
		1.0]
	},
	{
		"bufferView":7,
		"type":"VEC2",
		"componentType":5126,
		"min":[0.0,
		0.0],
		"count":24,
		"byteOffset":24,
		"max":[1.0,
		1.0]
	},
	{
		"bufferView":8,
		"type":"SCALAR",
		"componentType":5123,
		"min":[0],
		"count":36,
		"byteOffset":0,
		"max":[23]
	},
	{
		"bufferView":9,
		"type":"VEC3",
		"componentType":5126,
		"min":[-0.0005000000237487257,
		-0.0005000000237487257,
		-0.0005000000237487257],
		"count":24,
		"byteOffset":0,
		"max":[0.0005000000237487257,
		0.0005000000237487257,
		0.0005000000237487257]
	},
	{
		"bufferView":9,
		"type":"VEC3",
		"componentType":5126,
		"min":[-1.0,
		-1.0,
		-1.0],
		"count":24,
		"byteOffset":12,
		"max":[1.0,
		1.0,
		1.0]
	},
	{
		"bufferView":9,
		"type":"VEC2",
		"componentType":5126,
		"min":[0.0,
		0.0],
		"count":24,
		"byteOffset":24,
		"max":[1.0,
		1.0]
	}],
	"bufferViews":[{
		"buffer":0,
		"byteOffset":0,
		"byteLength":72,
		"target":34963
	},
	{
		"buffer":0,
		"byteOffset":72,
		"byteLength":768,
		"target":34962,
		"byteStride":32
	},
	{
		"buffer":1,
		"byteOffset":0,
		"byteLength":72,
		"target":34963
	},
	{
		"buffer":1,
		"byteOffset":72,
		"byteLength":768,
		"target":34962,
		"byteStride":32
	},
	{
		"buffer":2,
		"byteOffset":0,
		"byteLength":72,
		"target":34963
	},
	{
		"buffer":2,
		"byteOffset":72,
		"byteLength":768,
		"target":34962,
		"byteStride":32
	},
	{
		"buffer":3,
		"byteOffset":0,
		"byteLength":72,
		"target":34963
	},
	{
		"buffer":3,
		"byteOffset":72,
		"byteLength":768,
		"target":34962,
		"byteStride":32
	},
	{
		"buffer":4,
		"byteOffset":0,
		"byteLength":72,
		"target":34963
	},
	{
		"buffer":4,
		"byteOffset":72,
		"byteLength":768,
		"target":34962,
		"byteStride":32
	}],
	"buffers":[{
		"uri":"data:application/octet-stream;base64,",
		"byteLength":840
	},
	{
		"uri":"data:application/octet-stream;base64,",
		"byteLength":840
	},
	{
		"uri":"data:application/octet-stream;base64,",
		"byteLength":840
	},
	{
		"uri":"data:application/octet-stream;base64,",
		"byteLength":840
	},
	{
		"uri":"data:application/octet-stream;base64,",
		"byteLength":840
	}]
}