{
	"scenes":[{
		"nodes":[0,
		1]
	}],
	"asset":{
		"version":"2.0",
		"generator":"Created using the official Cinema 4D glTF Exporter 1.000x284978"
	},
	"nodes":[{
		"name":"lamp",
		"translation":[0.0,
		-0.3764267563819885,
		0.0],
		"rotation":[0.0,
		0.0,
		0.0,
		-1.0],
		"scale":[1.0,
		1.0,
		1.0],
		"mesh":0
	},
	{
		"name":"blades",
		"translation":[0.0,
		-0.3764267563819885,
		0.0],
		"rotation":[0.0,
		0.0,
		0.0,
		-1.0],
		"scale":[1.0,
		1.0,
		1.0],
		"mesh":1
	}],
	"meshes":[{
		"name":"lamp",
		"primitives":[{
			"attributes":{
				"POSITION":1,
				"NORMAL":2,
				"TEXCOORD_0":3
			},
			"indices":0
		}]
	},
	{
		"name":"blades",
		"primitives":[{
			"attributes":{
				"POSITION":5,
				"NORMAL":6,
				"TEXCOORD_0":7
			},
			"indices":4
		}]
	}],
	"accessors":[{
		"bufferView":0,
		"type":"SCALAR",
		"componentType":5123,
		"count":567,
		"byteOffset":0,
		"min":[0],
		"max":[180]
	},
	{
		"bufferView":1,
		"type":"VEC3",
		"componentType":5126,
		"count":181,
		"byteOffset":0,
		"min":[-0.23135417699813844,
		-0.5440112948417664,
		-0.24246160686016084],
		"max":[0.24620194733142854,
		0.37642672657966616,
		0.24246159195899964]
	},
	{
		"bufferView":1,
		"type":"VEC3",
		"componentType":5126,
		"count":181,
		"byteOffset":12,
		"min":[-0.9740445613861084,
		-1.0,
		-0.9985535144805908],
		"max":[0.9927205443382263,
		1.0,
		0.9985535144805908]
	},
	{
		"bufferView":1,
		"type":"VEC2",
		"componentType":5126,
		"count":181,
		"byteOffset":24,
		"min":[0.0078125,
		0.4063812494277954],
		"max":[0.6217353940010071,
		0.9921875]
	},
	{
		"bufferView":2,
		"type":"SCALAR",
		"componentType":5123,
		"count":324,
		"byteOffset":0,
		"min":[0],
		"max":[171]
	},
	{
		"bufferView":3,
		"type":"VEC3",
		"componentType":5126,
		"count":172,
		"byteOffset":0,
		"min":[-1.3883193731307984,
		-0.40515753626823428,
		-1.243199110031128],
		"max":[0.8042534589767456,
		-0.38173413276672366,
		1.2431992292404175]
	},
	{
		"bufferView":3,
		"type":"VEC3",
		"componentType":5126,
		"count":172,
		"byteOffset":12,
		"min":[-0.9844864010810852,
		-1.0,
		-1.0],
		"max":[1.0,
		1.0,
		1.0]
	},
	{
		"bufferView":3,
		"type":"VEC2",
		"componentType":5126,
		"count":172,
		"byteOffset":24,
		"min":[0.0078125,
		0.3460007905960083],
		"max":[0.7244109511375427,
		0.9921875]
	}],
	"bufferViews":[{
		"buffer":0,
		"byteOffset":0,
		"byteLength":1134,
		"target":34963
	},
	{
		"buffer":0,
		"byteOffset":1136,
		"byteLength":5792,
		"target":34962,
		"byteStride":32
	},
	{
		"buffer":1,
		"byteOffset":0,
		"byteLength":648,
		"target":34963
	},
	{
		"buffer":1,
		"byteOffset":648,
		"byteLength":5504,
		"target":34962,
		"byteStride":32
	}],
	"buffers":[{
		"uri":"data:application/octet-stream;base64,",
		"byteLength":6928
	},
	{
		"uri":"data:application/octet-stream;base64,",
		"byteLength":6152
	}]
}